<?xml version="1.0" encoding="iso-8859-1"?>
<!-- Generator: Adobe Illustrator 16.0.0, SVG Export Plug-In . SVG Version: 6.00 Build 0)  -->
<!DOCTYPE svg PUBLIC "-//W3C//DTD SVG 1.1//EN" "http://www.w3.org/Graphics/SVG/1.1/DTD/svg11.dtd">
<svg xmlns="http://www.w3.org/2000/svg" xmlns:xlink="http://www.w3.org/1999/xlink" version="1.1" id="Capa_1" x="0px" y="0px" width="512px" height="512px" viewBox="0 0 611.999 611.999" style="enable-background:new 0 0 611.999 611.999;" xml:space="preserve">
<g>
	<g>
		<path d="M490.913,611.995c-6.026,0-11.801-1.871-16.705-5.4L305.986,485.487L137.764,606.584    c-9.769,7.089-23.815,7.059-33.655-0.162C94.058,599,89.972,586.086,93.957,574.285l64.902-194.747L11.893,273.72    c-10.092-7.291-14.309-20.134-10.517-31.966c3.843-11.872,14.784-19.831,27.223-19.831l182.794-0.02l67.461-202.372    c3.883-11.68,14.794-19.527,27.132-19.527c12.347,0,23.249,7.848,27.152,19.538l67.451,202.372l182.804,0.021    c12.438,0,23.37,7.948,27.213,19.78c3.822,11.852-0.395,24.705-10.497,32.006L453.133,379.548l64.913,194.777    c3.964,11.821-0.142,24.725-10.184,32.106C502.907,610.073,497.052,611.995,490.913,611.995z M305.986,462.906    c2.073,0,4.146,0.627,5.906,1.911L486.02,590.171c2.933,2.104,6.997,2.073,9.88-0.051c2.933-2.153,4.126-5.926,2.973-9.395    L431.604,378.88c-1.405-4.196,0.091-8.818,3.681-11.407l153.003-110.176c2.953-2.144,4.207-5.905,3.095-9.364    c-1.123-3.458-4.339-5.794-7.979-5.794l-190.095-0.02c-4.358,0-8.212-2.781-9.587-6.917L313.954,25.933    c-1.143-3.408-4.338-5.704-7.968-5.704c-3.61,0-6.816,2.295-7.938,5.693l-69.766,209.299c-1.375,4.126-5.238,6.917-9.587,6.917    l-190.085,0.01c-3.641,0-6.856,2.336-7.979,5.794c-1.102,3.458,0.142,7.23,3.104,9.375l152.993,110.166    c3.6,2.589,5.086,7.21,3.681,11.406L113.14,580.726c-1.163,3.479,0.04,7.251,2.983,9.426c2.821,2.072,6.978,2.113,9.809,0.05    L300.1,464.827C301.84,463.542,303.913,462.906,305.986,462.906z" fill="#FFDA44"/>
	</g>
</g>
<g>
</g>
<g>
</g>
<g>
</g>
<g>
</g>
<g>
</g>
<g>
</g>
<g>
</g>
<g>
</g>
<g>
</g>
<g>
</g>
<g>
</g>
<g>
</g>
<g>
</g>
<g>
</g>
<g>
</g>
</svg>
